<mxfile host="app.diagrams.net" modified="2021-05-21T03:08:16.298Z" agent="5.0 (X11; CrOS aarch64 13816.82.0) AppleWebKit/537.36 (KHTML, like Gecko) Chrome/90.0.4430.218 Safari/537.36" etag="5gtpbAtwsdz7QUUhjAf8" version="14.6.13" type="github">
  <diagram id="j2g-nxtkr78SnnLGsR2i" name="Page-1">
    <mxGraphModel dx="582" dy="383" grid="1" gridSize="10" guides="1" tooltips="1" connect="1" arrows="1" fold="1" page="1" pageScale="1" pageWidth="850" pageHeight="1100" math="0" shadow="0">
      <root>
        <mxCell id="0" />
        <mxCell id="1" parent="0" />
        <mxCell id="BEyVPSjc600qw2VoiTuB-8" style="edgeStyle=orthogonalEdgeStyle;rounded=0;orthogonalLoop=1;jettySize=auto;html=1;exitX=0.5;exitY=1;exitDx=0;exitDy=0;entryX=0.5;entryY=0;entryDx=0;entryDy=0;" edge="1" parent="1" source="BEyVPSjc600qw2VoiTuB-1" target="BEyVPSjc600qw2VoiTuB-3">
          <mxGeometry relative="1" as="geometry" />
        </mxCell>
        <mxCell id="BEyVPSjc600qw2VoiTuB-11" style="edgeStyle=orthogonalEdgeStyle;rounded=0;orthogonalLoop=1;jettySize=auto;html=1;exitX=0.5;exitY=1;exitDx=0;exitDy=0;entryX=0.5;entryY=0;entryDx=0;entryDy=0;" edge="1" parent="1" source="BEyVPSjc600qw2VoiTuB-1" target="BEyVPSjc600qw2VoiTuB-2">
          <mxGeometry relative="1" as="geometry" />
        </mxCell>
        <mxCell id="BEyVPSjc600qw2VoiTuB-13" style="edgeStyle=orthogonalEdgeStyle;rounded=0;orthogonalLoop=1;jettySize=auto;html=1;exitX=0.5;exitY=1;exitDx=0;exitDy=0;entryX=0.5;entryY=0;entryDx=0;entryDy=0;" edge="1" parent="1" source="BEyVPSjc600qw2VoiTuB-1" target="BEyVPSjc600qw2VoiTuB-4">
          <mxGeometry relative="1" as="geometry" />
        </mxCell>
        <mxCell id="BEyVPSjc600qw2VoiTuB-1" value="Number add program" style="rounded=0;whiteSpace=wrap;html=1;" vertex="1" parent="1">
          <mxGeometry x="240" y="170" width="120" height="60" as="geometry" />
        </mxCell>
        <mxCell id="BEyVPSjc600qw2VoiTuB-12" style="edgeStyle=orthogonalEdgeStyle;rounded=0;orthogonalLoop=1;jettySize=auto;html=1;exitX=0.5;exitY=1;exitDx=0;exitDy=0;entryX=0.5;entryY=0;entryDx=0;entryDy=0;" edge="1" parent="1" source="BEyVPSjc600qw2VoiTuB-2" target="BEyVPSjc600qw2VoiTuB-5">
          <mxGeometry relative="1" as="geometry" />
        </mxCell>
        <mxCell id="BEyVPSjc600qw2VoiTuB-2" value="Input" style="rounded=0;whiteSpace=wrap;html=1;" vertex="1" parent="1">
          <mxGeometry x="80" y="270" width="120" height="60" as="geometry" />
        </mxCell>
        <mxCell id="BEyVPSjc600qw2VoiTuB-9" style="edgeStyle=orthogonalEdgeStyle;rounded=0;orthogonalLoop=1;jettySize=auto;html=1;exitX=0.5;exitY=1;exitDx=0;exitDy=0;entryX=0.5;entryY=0;entryDx=0;entryDy=0;" edge="1" parent="1" source="BEyVPSjc600qw2VoiTuB-3" target="BEyVPSjc600qw2VoiTuB-6">
          <mxGeometry relative="1" as="geometry" />
        </mxCell>
        <mxCell id="BEyVPSjc600qw2VoiTuB-3" value="Process" style="rounded=0;whiteSpace=wrap;html=1;" vertex="1" parent="1">
          <mxGeometry x="240" y="270" width="120" height="60" as="geometry" />
        </mxCell>
        <mxCell id="BEyVPSjc600qw2VoiTuB-14" style="edgeStyle=orthogonalEdgeStyle;rounded=0;orthogonalLoop=1;jettySize=auto;html=1;exitX=0.5;exitY=1;exitDx=0;exitDy=0;entryX=0.5;entryY=0;entryDx=0;entryDy=0;" edge="1" parent="1" source="BEyVPSjc600qw2VoiTuB-4" target="BEyVPSjc600qw2VoiTuB-7">
          <mxGeometry relative="1" as="geometry" />
        </mxCell>
        <mxCell id="BEyVPSjc600qw2VoiTuB-4" value="Output" style="rounded=0;whiteSpace=wrap;html=1;" vertex="1" parent="1">
          <mxGeometry x="400" y="270" width="120" height="60" as="geometry" />
        </mxCell>
        <mxCell id="BEyVPSjc600qw2VoiTuB-5" value="User inputs how many intergers they want to add, and what integers they want added." style="rounded=0;whiteSpace=wrap;html=1;" vertex="1" parent="1">
          <mxGeometry x="80" y="360" width="120" height="60" as="geometry" />
        </mxCell>
        <mxCell id="BEyVPSjc600qw2VoiTuB-6" value="Calculate the integers with a loop" style="rounded=0;whiteSpace=wrap;html=1;" vertex="1" parent="1">
          <mxGeometry x="240" y="360" width="120" height="60" as="geometry" />
        </mxCell>
        <mxCell id="BEyVPSjc600qw2VoiTuB-7" value="Print answer" style="rounded=0;whiteSpace=wrap;html=1;" vertex="1" parent="1">
          <mxGeometry x="400" y="360" width="120" height="60" as="geometry" />
        </mxCell>
      </root>
    </mxGraphModel>
  </diagram>
</mxfile>
